<?xml version="1.0" encoding="UTF-8" standalone="no"?>
<svg
   version="1.1"
   viewBox="0.00 0.00 400.00 400.00"
   id="svg82"
   xmlns="http://www.w3.org/2000/svg"
   xmlns:svg="http://www.w3.org/2000/svg">
  <defs
     id="defs82" />
  <g
     stroke-width="2.00"
     fill="none"
     stroke-linecap="butt"
     id="g60">
    <path
       stroke="#7d580b"
       vector-effect="non-scaling-stroke"
       d="   M 111.49 71.95   L 96.77 81.90"
       id="path1" />
    <path
       stroke="#794110"
       vector-effect="non-scaling-stroke"
       d="   M 96.77 81.90   Q 76.21 97.16 61.69 116.71   Q 41.19 144.30 32.93 178.55   Q 31.81 183.22 30.90 188.05"
       id="path2" />
    <path
       stroke="#7c5130"
       vector-effect="non-scaling-stroke"
       d="   M 30.90 188.05   C 29.96 194.33 28.72 200.77 28.43 206.96   Q 27.71 222.43 28.39 237.98   C 28.55 241.66 29.60 244.98 29.72 248.76   Q 29.79 251.05 30.22 253.27"
       id="path3" />
    <path
       stroke="#7a3533"
       vector-effect="non-scaling-stroke"
       d="   M 30.22 253.27   Q 42.27 315.98 89.45 355.82   Q 120.95 382.40 165.87 392.74   Q 167.61 393.14 173.16 393.70   Q 177.34 394.12 180.23 395.08   Q 181.63 395.55 187.20 395.49"
       id="path4" />
    <path
       stroke="#761515"
       vector-effect="non-scaling-stroke"
       d="   M 187.20 395.49   Q 201.44 396.35 216.03 395.55   C 220.11 395.32 223.69 394.09 227.72 393.59   Q 232.04 393.06 236.64 392.04   Q 264.28 385.97 290.32 369.57   Q 306.24 359.53 317.90 348.16"
       id="path5" />
    <path
       stroke="#711603"
       vector-effect="non-scaling-stroke"
       d="   M 317.90 348.16   Q 329.27 335.99 333.58 330.54   Q 359.18 298.17 368.22 256.99   Q 369.89 249.39 370.27 243.99"
       id="path6" />
    <path
       stroke="#5a1605"
       vector-effect="non-scaling-stroke"
       d="   M 370.27 243.99   Q 370.51 243.15 370.56 242.00   Q 370.85 235.28 371.22 228.33   C 371.74 218.69 371.04 209.79 370.34 200.48   C 369.86 194.15 368.23 187.57 366.86 181.18"
       id="path7" />
    <path
       stroke="#711603"
       vector-effect="non-scaling-stroke"
       d="   M 366.86 181.18   Q 355.06 130.46 317.26 94.26"
       id="path8" />
    <path
       stroke="#7f4e00"
       vector-effect="non-scaling-stroke"
       d="   M 317.26 94.26   Q 321.02 87.73 322.94 83.75   Q 328.86 71.51 331.21 57.70   Q 332.81 48.31 331.51 38.00   Q 329.09 18.86 322.96 3.49   A 0.95 0.94 60.7 0 0 321.52 3.08   Q 314.47 8.29 307.74 12.64   Q 269.51 37.36 223.99 44.48   Q 219.50 45.19 215.81 45.36   C 210.17 45.63 204.57 47.06 199.22 47.13   C 168.14 47.53 137.60 55.43 111.49 71.95"
       id="path9" />
    <path
       stroke="#f06303"
       vector-effect="non-scaling-stroke"
       d="   M 317.26 94.26   L 312.46 101.22"
       id="path10" />
    <path
       stroke="#ca5d05"
       vector-effect="non-scaling-stroke"
       d="   M 312.46 101.22   C 308.59 104.97 304.93 109.48 301.53 112.61   Q 294.37 119.20 286.78 124.12   Q 276.78 130.60 262.43 136.49   C 259.09 137.87 255.66 138.42 252.47 140.02   Q 250.96 140.78 252.59 141.21   Q 261.70 143.61 271.31 143.90   Q 279.43 144.14 284.00 143.94   Q 287.37 143.79 292.06 142.57"
       id="path11" />
    <path
       stroke="#f06303"
       vector-effect="non-scaling-stroke"
       d="   M 292.06 142.57   Q 303.27 140.37 313.37 135.04   Q 316.81 133.23 319.78 131.11   A 0.78 0.78 0.0 0 1 321.01 131.68   Q 321.26 134.51 320.85 137.58   Q 319.61 146.77 316.56 155.43"
       id="path12" />
    <path
       stroke="#ca5d05"
       vector-effect="non-scaling-stroke"
       d="   M 316.56 155.43   Q 312.53 163.36 308.69 169.21   C 297.86 185.75 279.51 194.12 260.15 197.45   Q 259.69 197.53 259.67 198.00   Q 259.63 198.84 260.60 199.71"
       id="path13" />
    <path
       stroke="#f88601"
       vector-effect="non-scaling-stroke"
       d="   M 260.60 199.71   Q 259.95 200.59 259.14 200.31   Q 258.67 200.14 258.28 200.46   Q 257.57 201.06 256.62 201.10   Q 252.54 201.28 248.15 200.97   Q 247.63 200.93 247.42 200.45   Q 247.10 199.69 246.51 199.20   Q 245.81 198.63 245.88 199.53   Q 245.89 199.73 245.93 199.94   Q 246.06 200.62 245.41 200.37   Q 245.13 200.27 244.97 200.50   Q 244.67 200.91 244.20 200.71   Q 241.04 199.37 237.66 198.87   Q 235.50 198.55 233.36 197.91   Q 231.20 197.26 229.02 196.88   Q 226.35 196.42 223.96 195.33   Q 223.51 195.12 223.01 195.12   Q 221.56 195.12 218.85 194.42   Q 217.44 194.05 215.29 194.56   Q 214.96 194.64 214.78 194.34   Q 214.13 193.28 213.01 193.96   Q 212.71 194.14 212.34 194.09   Q 212.21 194.07 212.22 193.94   Q 212.27 193.13 211.55 193.48   Q 211.16 193.68 210.75 193.71"
       id="path14" />
    <path
       stroke="#fba50b"
       vector-effect="non-scaling-stroke"
       d="   M 210.75 193.71   L 217.31 186.67   A 0.51 0.51 0.0 0 0 216.96 185.81   C 211.81 185.57 206.22 185.73 201.13 184.56   Q 197.79 183.80 194.93 183.05   Q 183.99 180.17 175.71 172.94   A 1.65 1.64 -44.6 0 1 175.73 170.44   L 187.18 160.68"
       id="path15" />
    <path
       stroke="#fdaf07"
       vector-effect="non-scaling-stroke"
       d="   M 187.18 160.68   Q 202.48 146.76 213.84 127.57   Q 230.73 99.02 232.51 65.53   A 1.96 1.95 -88.9 0 0 230.53 63.47   C 223.82 63.54 216.31 62.03 211.14 61.65   Q 186.24 59.84 161.49 62.64"
       id="path16" />
    <path
       stroke="#fba50b"
       vector-effect="non-scaling-stroke"
       d="   M 161.49 62.64   Q 158.33 62.79 155.22 63.12   Q 154.75 63.17 154.27 63.10   Q 153.64 63.01 153.19 63.49   A 1.03 1.02 -70.9 0 1 152.56 63.80   Q 148.06 64.26 143.18 64.94   C 140.84 65.27 139.00 66.54 136.56 66.81   Q 134.42 67.04 131.99 67.92   Q 124.31 70.70 115.96 74.15   A 1.96 1.95 72.7 0 1 113.31 72.76   Q 113.25 72.49 113.19 72.21   Q 113.03 71.47 112.47 71.98   Q 112.09 72.34 111.49 71.95"
       id="path17" />
    <path
       stroke="#a5250a"
       vector-effect="non-scaling-stroke"
       d="   M 314.20 184.27   Q 311.44 189.65 305.56 197.82   Q 300.52 204.80 294.99 208.75"
       id="path18" />
    <path
       stroke="#c54705"
       vector-effect="non-scaling-stroke"
       d="   M 294.99 208.75   Q 287.17 211.60 280.00 210.41   Q 269.07 208.60 260.60 199.71"
       id="path19" />
    <path
       stroke="#b54504"
       vector-effect="non-scaling-stroke"
       d="   M 275.37 234.42   Q 266.24 239.90 257.24 241.68   Q 245.41 244.03 237.18 246.20   C 233.62 247.15 230.47 248.95 227.30 250.71   C 219.29 255.13 214.05 263.70 211.53 272.78   Q 210.48 276.57 209.50 280.52"
       id="path20" />
    <path
       stroke="#ee5d02"
       vector-effect="non-scaling-stroke"
       d="   M 209.50 280.52   Q 206.14 280.11 203.42 278.26   Q 203.01 277.97 202.51 277.91   Q 201.68 277.81 200.93 277.52   Q 195.41 275.36 189.64 273.29   C 187.13 272.39 184.55 270.89 182.32 270.13   Q 176.12 268.02 170.06 265.38   Q 169.77 265.26 169.47 265.36   Q 169.28 265.43 169.16 265.58   A 0.57 0.57 0.0 0 1 168.17 265.42   Q 168.13 265.30 168.10 265.16   Q 167.96 264.53 167.34 264.35   Q 161.06 262.56 158.63 261.61   Q 157.87 261.32 157.09 259.28"
       id="path21" />
    <path
       stroke="#f27911"
       vector-effect="non-scaling-stroke"
       d="   M 157.09 259.28   L 159.46 255.80"
       id="path22" />
    <path
       stroke="#fbb912"
       vector-effect="non-scaling-stroke"
       d="   M 187.18 160.68   Q 185.26 159.71 183.75 157.15   Q 183.48 156.69 182.99 156.46   Q 181.18 155.62 180.62 153.40   A 1.60 1.58 9.9 0 0 179.96 152.47   Q 179.27 152.02 179.19 151.25   Q 179.11 150.64 178.72 150.16   Q 175.99 146.81 173.25 142.98   Q 172.62 142.10 172.39 141.09   Q 172.11 139.91 171.24 138.93   Q 171.13 138.81 171.04 138.94   Q 170.95 139.08 170.81 139.17   Q 170.54 139.36 170.26 139.20   Q 169.10 138.57 168.70 137.39   Q 168.65 137.25 168.55 137.15   Q 168.46 137.05 168.30 137.12   Q 168.05 137.22 167.91 136.98   Q 165.99 133.45 163.38 130.44   Q 163.20 130.25 163.15 129.98   Q 163.11 129.78 163.13 129.58   A 1.31 1.28 29.3 0 0 162.86 128.66   Q 161.85 127.41 160.74 126.09   Q 160.17 125.41 159.89 124.51   Q 159.65 123.76 159.33 122.97   Q 159.09 122.39 157.71 120.70   Q 156.55 119.28 156.33 117.64   Q 156.17 116.43 155.34 115.47   Q 154.79 114.85 155.08 114.06   Q 155.51 112.88 154.45 111.77   Q 154.05 111.34 154.29 110.80   Q 154.84 109.54 154.02 108.23   Q 153.58 107.53 153.84 108.32   Q 153.90 108.50 153.89 108.69   Q 153.84 109.15 153.42 108.94   Q 153.13 108.79 153.09 108.49   Q 152.68 105.18 151.74 101.85   Q 151.37 100.50 151.16 99.11   Q 150.89 97.17 149.52 95.79   Q 149.12 95.39 149.24 94.84   Q 149.50 93.60 148.68 92.58   Q 148.38 92.20 148.35 91.72   Q 148.24 89.70 147.93 87.78   Q 147.74 86.60 146.69 85.16   Q 146.40 84.77 146.59 84.33   Q 147.42 82.41 146.41 80.79   Q 145.92 79.99 145.80 78.93   Q 145.50 76.38 146.01 74.54   A 1.79 1.79 0.0 0 0 145.27 72.59   Q 143.20 71.22 143.67 68.43   A 0.07 0.07 0.0 0 0 143.59 68.35   Q 143.17 68.42 143.15 68.01   Q 143.11 67.47 143.65 67.45   Q 144.16 67.43 144.44 67.03   Q 144.94 66.31 145.79 66.41   Q 146.06 66.44 146.15 66.18   Q 146.30 65.76 146.74 65.67   L 161.49 62.64"
       id="path23" />
    <path
       stroke="#f6900c"
       vector-effect="non-scaling-stroke"
       d="   M 210.75 193.71   Q 200.79 202.50 191.47 207.70   Q 181.21 213.43 168.53 216.33   Q 165.23 217.08 159.87 217.41   Q 155.50 217.67 151.17 218.22"
       id="path24" />
    <path
       stroke="#fba50b"
       vector-effect="non-scaling-stroke"
       d="   M 151.17 218.22   Q 150.11 220.68 146.95 217.18   Q 144.46 214.42 141.77 212.34   Q 140.49 211.35 139.21 209.92   Q 138.10 208.68 136.49 207.58   Q 135.72 207.06 135.22 206.25   Q 134.94 205.80 134.45 205.62   C 133.19 205.15 132.63 203.70 131.59 202.84   Q 128.56 200.32 125.66 198.39   Q 124.80 197.82 123.62 197.72   Q 123.04 197.68 123.03 197.10   Q 123.02 196.72 122.82 196.41   Q 122.56 196.02 122.11 195.86   Q 119.89 195.08 119.12 194.38   Q 116.84 192.28 114.35 188.83   Q 112.88 186.79 110.77 185.45   Q 108.08 183.73 106.02 181.17   Q 105.39 180.39 104.52 179.77   Q 103.97 179.39 104.12 180.04   Q 104.16 180.19 103.87 180.23   Q 103.36 180.29 103.36 179.77   Q 103.36 179.62 103.38 179.48   Q 103.50 178.81 103.17 179.41   C 102.76 180.17 103.20 181.17 102.86 181.94"
       id="path25" />
    <path
       stroke="#f9b936"
       vector-effect="non-scaling-stroke"
       d="   M 102.86 181.94   C 102.18 174.88 101.95 167.39 104.54 160.53   C 107.27 153.29 109.96 147.09 114.95 140.92   C 120.63 133.87 127.73 126.89 135.39 121.55   Q 138.86 119.13 142.24 116.76   Q 146.43 113.81 141.31 113.90   C 134.05 114.02 126.03 113.68 119.26 114.58   Q 91.26 118.27 70.28 134.34   Q 60.59 141.76 51.04 153.41"
       id="path26" />
    <path
       stroke="#f6991b"
       vector-effect="non-scaling-stroke"
       d="   M 51.04 153.41   Q 51.23 153.11 51.07 152.87   Q 50.82 152.47 50.35 152.58   Q 50.13 152.63 49.91 152.59   A 1.38 1.36 -8.9 0 1 48.97 151.92   Q 47.90 150.04 48.52 148.05   C 49.01 146.48 50.01 145.33 50.33 143.65   Q 50.66 141.93 51.93 140.61   Q 53.07 139.43 53.97 137.85   Q 56.23 133.92 58.73 129.74   Q 59.68 128.17 60.31 126.48   Q 60.49 126.01 60.87 125.68   Q 62.72 124.07 63.41 121.71   Q 63.73 120.59 64.28 119.96   Q 64.93 119.21 65.66 118.51   Q 66.81 117.40 67.42 116.24   Q 68.20 114.78 69.01 113.24   Q 69.83 111.66 71.04 110.50   C 72.97 108.63 75.34 106.87 76.84 104.66   Q 77.82 103.19 78.17 101.64   Q 78.77 98.97 80.45 96.88   Q 80.67 96.60 81.02 96.62   Q 81.48 96.65 81.79 96.30   Q 83.27 94.65 85.05 93.23   C 86.76 91.87 87.94 90.23 89.86 89.03   C 90.59 88.57 90.80 87.76 91.63 87.36   Q 93.90 86.27 95.64 84.49   Q 95.76 84.37 95.92 84.37   Q 95.99 84.37 96.05 84.38   Q 96.50 84.51 96.38 84.06   Q 96.35 83.92 96.38 83.77   Q 96.39 83.71 96.44 83.68   Q 98.17 82.43 96.77 81.90"
       id="path27" />
    <path
       stroke="#cb2b08"
       vector-effect="non-scaling-stroke"
       d="   M 366.86 181.18   Q 365.32 180.98 363.91 181.68   Q 363.07 182.10 363.45 181.24   Q 363.52 181.09 363.52 180.92   Q 363.53 180.43 363.07 180.58   Q 357.80 182.22 352.26 183.08   Q 347.45 183.83 341.13 185.81   Q 340.93 185.87 340.78 186.03   Q 340.50 186.30 340.12 186.39   Q 332.69 188.07 324.78 189.16   Q 322.22 189.52 319.75 189.05   Q 317.00 188.53 314.99 187.25   Q 314.23 186.77 314.20 184.27"
       id="path28" />
    <path
       stroke="#bd2507"
       vector-effect="non-scaling-stroke"
       d="   M 314.20 184.27   Q 318.37 175.34 318.83 172.02   Q 319.19 169.45 319.93 166.92   Q 320.54 164.83 320.99 162.45   Q 321.45 160.05 321.29 158.75   Q 320.86 155.14 316.56 155.43"
       id="path29" />
    <path
       stroke="#bd2507"
       vector-effect="non-scaling-stroke"
       d="   M 292.06 142.57   C 291.60 141.10 291.90 139.63 293.20 138.75   Q 296.23 136.72 298.10 133.76   C 299.25 131.95 300.92 130.92 301.87 128.91   C 304.07 124.28 306.69 119.74 308.41 115.02   Q 308.96 113.53 310.32 110.96   Q 312.75 106.37 312.46 101.22"
       id="path30" />
    <path
       stroke="#cb2b08"
       vector-effect="non-scaling-stroke"
       d="   M 370.27 243.99   Q 369.40 243.46 368.99 245.76   Q 368.31 249.49 367.80 253.25   Q 367.34 256.66 365.00 261.82"
       id="path31" />
    <path
       stroke="#a5250a"
       vector-effect="non-scaling-stroke"
       d="   M 365.00 261.82   Q 365.11 260.68 364.85 259.81   Q 364.66 259.14 364.13 259.59   Q 363.76 259.91 363.25 259.96   Q 362.56 260.02 361.80 259.76   Q 360.34 259.26 359.23 259.51   Q 352.35 261.07 345.36 261.84   Q 343.73 262.02 337.17 262.88   Q 333.30 263.39 328.93 263.56   Q 327.74 263.61 326.61 263.47   Q 325.07 263.27 324.33 263.29   Q 314.10 263.53 307.30 262.79   Q 302.31 262.25 296.11 259.89   Q 292.87 258.65 289.84 258.42   Q 286.52 258.17 283.22 258.17   A 1.59 1.58 -5.1 0 1 281.67 256.88   Q 281.56 256.27 281.76 255.70   Q 282.02 254.94 281.56 255.59   Q 281.38 255.83 281.16 256.02   Q 280.98 256.17 280.80 256.02   Q 280.75 255.99 280.74 255.94   Q 280.68 255.74 280.85 255.58   Q 281.13 255.31 280.95 255.15"
       id="path32" />
    <path
       stroke="#962309"
       vector-effect="non-scaling-stroke"
       d="   M 280.95 255.15   Q 283.39 253.01 285.64 250.70   C 289.44 246.80 291.89 241.44 294.50 236.70   Q 295.11 235.59 293.93 234.81   A 1.43 1.41 -33.0 0 0 292.90 234.60   Q 288.32 235.42 283.88 235.16   Q 283.48 235.14 279.64 235.26   Q 277.42 235.33 275.37 234.42"
       id="path33" />
    <path
       stroke="#d34e06"
       vector-effect="non-scaling-stroke"
       d="   M 275.37 234.42   Q 278.80 232.34 279.77 231.56   Q 281.69 230.00 287.39 223.90   Q 292.19 218.76 295.31 209.65   Q 295.77 208.31 294.99 208.75"
       id="path34" />
    <path
       stroke="#ee6612"
       vector-effect="non-scaling-stroke"
       d="   M 157.09 259.28   Q 153.69 263.33 151.43 268.21   Q 147.53 276.67 146.32 284.89"
       id="path35" />
    <path
       stroke="#ea5713"
       vector-effect="non-scaling-stroke"
       d="   M 146.32 284.89   Q 145.59 289.21 145.90 294.80   Q 146.34 302.75 147.89 309.43"
       id="path36" />
    <path
       stroke="#f07123"
       vector-effect="non-scaling-stroke"
       d="   M 147.89 309.43   L 131.72 301.39   Q 131.28 301.18 130.79 301.19   Q 130.34 301.20 130.13 301.00   Q 128.57 299.52 126.54 299.85   Q 126.25 299.89 126.36 299.62   Q 126.39 299.56 126.36 299.50   Q 126.24 299.22 125.95 299.05   Q 124.67 298.33 123.42 298.13   A 0.38 0.38 0.0 0 1 123.10 297.69   Q 123.14 297.44 122.95 297.33   Q 115.59 293.04 107.47 288.02   A 0.35 0.34 28.3 0 0 106.98 288.16   Q 106.87 288.39 106.63 288.43   Q 106.32 288.47 106.49 288.21   Q 106.81 287.71 106.24 287.40   Q 104.02 286.20 101.76 285.07   Q 99.96 284.17 98.21 282.87   Q 96.36 281.50 94.36 280.83   A 0.99 0.98 21.1 0 0 93.15 281.36   Q 92.99 281.70 93.26 281.95   Q 93.50 282.17 93.18 282.22   Q 93.01 282.24 92.95 282.11   Q 92.61 281.34 92.43 282.17   Q 92.37 282.44 92.35 282.71"
       id="path37" />
    <path
       stroke="#881c08"
       vector-effect="non-scaling-stroke"
       d="   M 280.95 255.15   Q 279.00 256.43 277.08 257.81   C 268.18 264.18 257.11 266.66 246.44 268.69   Q 240.35 269.85 233.09 272.48   Q 228.16 274.26 223.51 278.43   Q 216.76 284.48 212.66 291.40   C 212.25 292.10 212.18 293.01 212.08 293.80   Q 212.00 294.31 211.49 294.37   Q 211.02 294.43 210.53 294.30"
       id="path38" />
    <path
       stroke="#b13205"
       vector-effect="non-scaling-stroke"
       d="   M 210.53 294.30   Q 208.43 287.43 209.50 280.52"
       id="path39" />
    <path
       stroke="#f88601"
       vector-effect="non-scaling-stroke"
       d="   M 151.17 218.22   Q 154.23 227.79 160.63 233.37   Q 164.15 236.43 168.94 237.99   Q 171.91 238.96 175.09 239.50   Q 178.66 240.10 175.46 241.79   Q 174.71 242.19 173.98 242.74   Q 166.19 248.64 159.46 255.80"
       id="path40" />
    <path
       stroke="#f88f10"
       vector-effect="non-scaling-stroke"
       d="   M 159.46 255.80   Q 159.20 255.40 159.12 255.03   A 2.69 2.69 0.0 0 0 157.12 252.97   Q 155.00 252.45 153.15 250.71   C 150.69 248.40 147.51 247.43 144.73 245.65   Q 135.96 240.00 127.67 233.85   Q 126.76 233.17 125.53 233.53   Q 125.08 233.66 124.70 233.38   L 124.42 233.18   A 0.60 0.59 -55.8 0 1 124.27 232.37   Q 124.74 231.64 124.08 231.02   Q 123.94 230.90 123.80 231.01   Q 123.65 231.12 123.47 231.12   Q 122.96 231.11 123.06 230.61   Q 123.22 229.86 123.09 229.17   Q 122.98 228.57 122.41 228.79   L 120.71 229.45   Q 120.13 229.67 120.34 229.09   Q 120.47 228.73 120.21 228.44   C 119.12 227.24 117.80 227.97 116.83 226.28   Q 116.54 225.78 116.04 225.51   L 112.79 223.73"
       id="path41" />
    <path
       stroke="#f6a23b"
       vector-effect="non-scaling-stroke"
       d="   M 51.04 153.41   Q 44.73 162.43 43.10 165.35   Q 40.26 170.44 35.21 182.41"
       id="path42" />
    <path
       stroke="#f59240"
       vector-effect="non-scaling-stroke"
       d="   M 35.21 182.41   Q 32.85 183.87 32.41 186.63   A 1.12 1.11 -11.9 0 1 31.91 187.39   L 30.90 188.05"
       id="path43" />
    <path
       stroke="#fbaf2b"
       vector-effect="non-scaling-stroke"
       d="   M 102.86 181.94   Q 103.46 190.73 107.08 198.43   C 110.60 205.90 115.17 209.78 123.10 211.83   A 1.05 1.05 0.0 0 1 123.42 213.72   Q 117.39 217.77 112.79 223.73"
       id="path44" />
    <path
       stroke="#f6a23b"
       vector-effect="non-scaling-stroke"
       d="   M 112.79 223.73   Q 102.91 236.37 97.60 251.48"
       id="path45" />
    <path
       stroke="#f8b25b"
       vector-effect="non-scaling-stroke"
       d="   M 97.60 251.48   Q 95.99 249.87 94.39 250.67   Q 93.62 251.06 93.88 250.24   Q 94.04 249.76 93.88 249.28   A 1.18 1.15 -87.3 0 0 93.25 248.57   Q 91.92 247.95 92.13 246.54   Q 92.20 246.11 91.76 246.11   L 91.12 246.11   Q 90.64 246.11 90.29 245.78   L 87.50 243.15   Q 87.20 242.87 86.80 242.84   Q 86.37 242.81 86.26 242.37   Q 85.95 241.19 84.83 240.91   Q 84.43 240.81 84.22 240.46   Q 83.76 239.71 82.89 239.62   A 0.94 0.94 0.0 0 1 82.18 239.16   Q 81.58 238.14 80.47 237.71   Q 79.49 237.33 78.83 236.57   Q 77.22 234.71 75.46 231.89   Q 73.44 228.65 67.60 222.79   Q 67.41 222.01 66.68 221.96   Q 65.98 221.90 66.26 221.27   Q 66.45 220.84 66.03 220.59   Q 64.56 218.03 62.58 215.70   Q 62.22 215.28 61.67 215.33   Q 60.75 215.41 59.89 215.28   Q 59.02 215.16 59.06 214.29   Q 59.09 213.76 58.72 213.38   Q 55.83 210.38 53.56 206.92   Q 51.36 203.58 48.62 200.35   Q 45.67 196.90 42.72 192.12   C 42.15 191.20 41.03 190.59 40.41 189.63   C 39.49 188.21 38.13 187.49 36.82 186.49   Q 36.03 185.89 35.97 184.88   Q 35.93 184.29 35.34 184.46   Q 35.21 184.50 35.19 184.37   Q 35.12 183.96 35.25 183.53   Q 35.45 182.86 35.21 182.41"
       id="path46" />
    <path
       stroke="#e72a18"
       vector-effect="non-scaling-stroke"
       d="   M 317.90 348.16   Q 316.45 348.11 313.54 351.04   Q 311.22 353.38 297.50 362.88   Q 293.58 365.59 288.74 368.21   Q 284.15 370.68 279.76 373.14   Q 277.73 374.27 274.95 373.30   Q 274.47 373.14 273.98 373.23   C 268.91 374.18 263.68 375.55 258.60 375.76   Q 245.66 376.30 233.73 374.68   C 226.04 373.63 218.47 372.73 211.16 370.64   C 209.89 370.28 208.65 370.38 207.42 370.09   Q 205.63 369.66 200.26 367.43"
       id="path47" />
    <path
       stroke="#e73817"
       vector-effect="non-scaling-stroke"
       d="   M 200.26 367.43   Q 190.60 363.34 187.88 361.87   Q 178.68 356.93 168.22 347.11"
       id="path48" />
    <path
       stroke="#e84516"
       vector-effect="non-scaling-stroke"
       d="   M 168.22 347.11   Q 161.98 340.35 160.57 338.18   Q 151.63 324.47 147.89 309.43"
       id="path49" />
    <path
       stroke="#e63b04"
       vector-effect="non-scaling-stroke"
       d="   M 146.32 284.89   Q 147.60 283.36 150.68 285.35   Q 152.31 286.40 154.15 287.07   Q 156.81 288.04 159.45 289.37   Q 162.09 290.70 164.78 291.65   Q 168.08 292.83 171.38 294.28   Q 174.48 295.63 178.19 296.87   Q 182.76 298.40 187.48 300.02   Q 187.93 300.17 192.57 301.53   Q 195.01 302.25 197.52 303.40   A 1.66 1.61 -36.2 0 0 198.47 303.53   Q 200.04 303.27 201.20 304.09   Q 201.25 304.12 201.30 304.10   Q 201.42 304.04 201.52 303.97   Q 201.64 303.89 201.79 303.91   Q 205.59 304.46 209.07 306.00   Q 210.71 306.73 212.19 306.81   Q 215.03 306.97 215.48 305.52"
       id="path50" />
    <path
       stroke="#bd2507"
       vector-effect="non-scaling-stroke"
       d="   M 215.48 305.52   Q 222.26 316.48 234.55 322.18   Q 242.47 325.85 251.02 327.27   C 261.53 329.02 272.95 329.67 283.24 327.45   Q 309.30 321.81 330.54 306.29   Q 339.53 299.72 345.43 293.18   Q 353.68 284.02 360.00 273.25   Q 363.37 267.53 365.00 261.82"
       id="path51" />
    <path
       stroke="#c03406"
       vector-effect="non-scaling-stroke"
       d="   M 215.48 305.52   Q 211.98 299.97 210.53 294.30"
       id="path52" />
    <path
       stroke="#f59240"
       vector-effect="non-scaling-stroke"
       d="   M 97.60 251.48   C 94.55 261.63 92.36 272.03 92.35 282.71"
       id="path53" />
    <path
       stroke="#f38043"
       vector-effect="non-scaling-stroke"
       d="   M 92.35 282.71   C 91.77 294.58 92.32 306.06 95.74 317.52"
       id="path54" />
    <path
       stroke="#f27344"
       vector-effect="non-scaling-stroke"
       d="   M 95.74 317.52   L 98.53 326.54"
       id="path55" />
    <path
       stroke="#f68563"
       vector-effect="non-scaling-stroke"
       d="   M 98.53 326.54   Q 97.80 326.65 97.15 325.23   Q 96.95 324.78 96.53 324.50   Q 94.65 323.26 92.70 322.12   Q 90.56 320.88 88.90 319.69   C 85.06 316.93 81.13 314.52 77.54 311.70   Q 74.32 309.17 70.96 306.49   Q 69.99 305.71 68.90 306.00   Q 68.69 306.05 68.63 305.85   Q 68.38 305.02 67.53 305.15   Q 67.36 305.18 67.33 305.02   Q 67.32 304.97 67.34 304.92   Q 67.52 304.37 66.99 304.16   Q 66.04 303.79 65.57 302.88   Q 65.34 302.42 64.88 302.18   Q 63.29 301.36 61.90 300.02   A 0.26 0.26 0.0 0 0 61.66 299.95   Q 61.42 300.00 61.41 300.22   Q 61.38 301.06 61.18 300.24   Q 61.13 300.02 61.08 299.80   Q 60.99 299.33 60.59 299.06   Q 53.64 294.40 47.16 289.10   A 0.50 0.39 63.3 0 0 46.97 289.01   Q 46.63 288.95 46.69 289.18   Q 46.84 289.77 46.31 289.51   Q 46.06 289.40 45.82 289.31   Q 45.35 289.15 45.11 288.73   Q 44.54 287.71 43.62 287.04   Q 43.54 286.99 43.48 287.06   Q 43.37 287.17 43.39 287.30   Q 43.46 287.91 43.08 287.42   Q 42.11 286.17 42.09 284.76   Q 42.09 284.25 41.84 283.79   Q 40.91 282.11 39.92 280.51   Q 39.88 280.45 38.83 279.20   Q 38.19 278.45 38.09 277.40   Q 38.05 277.02 37.79 276.74   Q 37.50 276.44 37.46 276.02   Q 37.38 275.17 37.33 275.01   Q 36.39 272.20 35.62 269.72   Q 35.49 269.29 35.14 269.00   C 34.23 268.24 34.37 266.74 33.72 265.71   Q 33.41 265.23 33.54 264.67   Q 33.74 263.84 33.15 263.28   Q 32.78 262.93 32.78 262.42   L 32.79 259.31   A 0.98 0.92 -58.3 0 0 32.70 258.86   L 30.22 253.27"
       id="path56" />
    <path
       stroke="#ed5227"
       vector-effect="non-scaling-stroke"
       d="   M 168.22 347.11   Q 164.37 346.60 161.13 346.10   Q 158.63 345.72 151.62 342.13   Q 150.06 341.33 148.34 340.78   Q 148.04 340.69 147.90 340.97   Q 147.78 341.20 147.50 341.13   Q 147.25 341.22 147.02 341.06   Q 146.69 340.83 147.09 340.82   Q 147.28 340.81 147.27 340.65   Q 147.25 340.38 147.00 340.29   Q 133.42 335.28 120.50 328.74   Q 120.15 328.56 119.94 328.79   Q 119.80 328.95 119.85 328.75   Q 119.87 328.70 119.84 328.65   Q 119.75 328.48 119.55 328.40   Q 112.42 325.62 106.20 321.48   Q 106.02 321.37 106.00 321.58   Q 105.99 321.76 105.85 321.80   Q 105.48 321.91 105.15 321.68   Q 101.40 319.04 97.42 316.93   Q 97.32 316.88 97.21 316.91   Q 97.04 316.95 96.96 317.06   Q 96.45 317.76 96.63 316.92   Q 96.69 316.68 96.48 316.48   Q 96.08 316.10 95.95 316.64   L 95.74 317.52"
       id="path57" />
    <path
       stroke="#ec3729"
       vector-effect="non-scaling-stroke"
       d="   M 200.26 367.43   Q 200.84 368.72 201.30 368.84   Q 201.99 369.03 201.28 368.96   Q 200.77 368.91 200.24 369.02   Q 199.91 369.09 200.23 369.18   Q 200.37 369.22 200.36 369.43   Q 200.35 369.64 200.15 369.69   L 197.71 370.34   Q 197.18 370.48 196.68 370.26   C 194.56 369.30 192.77 367.77 190.33 367.66   Q 185.00 367.43 179.56 366.39   Q 178.51 366.19 177.63 365.82   Q 176.78 365.46 175.83 365.36   Q 175.43 365.32 175.28 364.96   A 1.06 1.04 84.7 0 0 174.56 364.35   Q 172.25 363.84 169.78 363.25   Q 167.36 362.67 164.85 361.77   Q 151.98 357.13 140.01 352.06   Q 136.10 350.40 130.90 348.45   Q 126.14 346.66 121.91 344.58   Q 116.50 341.92 110.94 339.14   Q 109.48 338.40 107.69 338.38   Q 105.96 338.37 104.34 338.30"
       id="path58" />
    <path
       stroke="#f05747"
       vector-effect="non-scaling-stroke"
       d="   M 98.53 326.54   Q 100.55 332.65 104.34 338.30"
       id="path59" />
    <path
       stroke="#f04948"
       vector-effect="non-scaling-stroke"
       d="   M 104.34 338.30   Q 107.30 345.46 112.69 352.54   Q 123.12 366.25 135.33 375.61   C 138.74 378.22 142.50 379.99 146.02 382.31   C 148.59 383.99 150.83 385.87 153.75 387.04   Q 160.31 389.66 167.46 391.46   C 169.84 392.06 172.34 392.04 174.79 392.23   C 176.25 392.34 177.38 393.18 178.73 393.66   Q 179.81 394.04 181.84 394.04   Q 184.96 394.04 187.20 395.49"
       id="path60" />
  </g>
  <path
     fill="#fd9b00"
     d="   M 317.26 94.26   L 312.46 101.22   C 308.59 104.97 304.93 109.48 301.53 112.61   Q 294.37 119.20 286.78 124.12   Q 276.78 130.60 262.43 136.49   C 259.09 137.87 255.66 138.42 252.47 140.02   Q 250.96 140.78 252.59 141.21   Q 261.70 143.61 271.31 143.90   Q 279.43 144.14 284.00 143.94   Q 287.37 143.79 292.06 142.57   Q 303.27 140.37 313.37 135.04   Q 316.81 133.23 319.78 131.11   A 0.78 0.78 0.0 0 1 321.01 131.68   Q 321.26 134.51 320.85 137.58   Q 319.61 146.77 316.56 155.43   Q 312.53 163.36 308.69 169.21   C 297.86 185.75 279.51 194.12 260.15 197.45   Q 259.69 197.53 259.67 198.00   Q 259.63 198.84 260.60 199.71   Q 259.95 200.59 259.14 200.31   Q 258.67 200.14 258.28 200.46   Q 257.57 201.06 256.62 201.10   Q 252.54 201.28 248.15 200.97   Q 247.63 200.93 247.42 200.45   Q 247.10 199.69 246.51 199.20   Q 245.81 198.63 245.88 199.53   Q 245.89 199.73 245.93 199.94   Q 246.06 200.62 245.41 200.37   Q 245.13 200.27 244.97 200.50   Q 244.67 200.91 244.20 200.71   Q 241.04 199.37 237.66 198.87   Q 235.50 198.55 233.36 197.91   Q 231.20 197.26 229.02 196.88   Q 226.35 196.42 223.96 195.33   Q 223.51 195.12 223.01 195.12   Q 221.56 195.12 218.85 194.42   Q 217.44 194.05 215.29 194.56   Q 214.96 194.64 214.78 194.34   Q 214.13 193.28 213.01 193.96   Q 212.71 194.14 212.34 194.09   Q 212.21 194.07 212.22 193.94   Q 212.27 193.13 211.55 193.48   Q 211.16 193.68 210.75 193.71   L 217.31 186.67   A 0.51 0.51 0.0 0 0 216.96 185.81   C 211.81 185.57 206.22 185.73 201.13 184.56   Q 197.79 183.80 194.93 183.05   Q 183.99 180.17 175.71 172.94   A 1.65 1.64 -44.6 0 1 175.73 170.44   L 187.18 160.68   Q 202.48 146.76 213.84 127.57   Q 230.73 99.02 232.51 65.53   A 1.96 1.95 -88.9 0 0 230.53 63.47   C 223.82 63.54 216.31 62.03 211.14 61.65   Q 186.24 59.84 161.49 62.64   Q 158.33 62.79 155.22 63.12   Q 154.75 63.17 154.27 63.10   Q 153.64 63.01 153.19 63.49   A 1.03 1.02 -70.9 0 1 152.56 63.80   Q 148.06 64.26 143.18 64.94   C 140.84 65.27 139.00 66.54 136.56 66.81   Q 134.42 67.04 131.99 67.92   Q 124.31 70.70 115.96 74.15   A 1.96 1.95 72.7 0 1 113.31 72.76   Q 113.25 72.49 113.19 72.21   Q 113.03 71.47 112.47 71.98   Q 112.09 72.34 111.49 71.95   C 137.60 55.43 168.14 47.53 199.22 47.13   C 204.57 47.06 210.17 45.63 215.81 45.36   Q 219.50 45.19 223.99 44.48   Q 269.51 37.36 307.74 12.64   Q 314.47 8.29 321.52 3.08   A 0.95 0.94 60.7 0 1 322.96 3.49   Q 329.09 18.86 331.51 38.00   Q 332.81 48.31 331.21 57.70   Q 328.86 71.51 322.94 83.75   Q 321.02 87.73 317.26 94.26   Z"
     id="path62" />
  <path
     fill="#fdc20d"
     d="   M 187.18 160.68   Q 185.26 159.71 183.75 157.15   Q 183.48 156.69 182.99 156.46   Q 181.18 155.62 180.62 153.40   A 1.60 1.58 9.9 0 0 179.96 152.47   Q 179.27 152.02 179.19 151.25   Q 179.11 150.64 178.72 150.16   Q 175.99 146.81 173.25 142.98   Q 172.62 142.10 172.39 141.09   Q 172.11 139.91 171.24 138.93   Q 171.13 138.81 171.04 138.94   Q 170.95 139.08 170.81 139.17   Q 170.54 139.36 170.26 139.20   Q 169.10 138.57 168.70 137.39   Q 168.65 137.25 168.55 137.15   Q 168.46 137.05 168.30 137.12   Q 168.05 137.22 167.91 136.98   Q 165.99 133.45 163.38 130.44   Q 163.20 130.25 163.15 129.98   Q 163.11 129.78 163.13 129.58   A 1.31 1.28 29.3 0 0 162.86 128.66   Q 161.85 127.41 160.74 126.09   Q 160.17 125.41 159.89 124.51   Q 159.65 123.76 159.33 122.97   Q 159.09 122.39 157.71 120.70   Q 156.55 119.28 156.33 117.64   Q 156.17 116.43 155.34 115.47   Q 154.79 114.85 155.08 114.06   Q 155.51 112.88 154.45 111.77   Q 154.05 111.34 154.29 110.80   Q 154.84 109.54 154.02 108.23   Q 153.58 107.53 153.84 108.32   Q 153.90 108.50 153.89 108.69   Q 153.84 109.15 153.42 108.94   Q 153.13 108.79 153.09 108.49   Q 152.68 105.18 151.74 101.85   Q 151.37 100.50 151.16 99.11   Q 150.89 97.17 149.52 95.79   Q 149.12 95.39 149.24 94.84   Q 149.50 93.60 148.68 92.58   Q 148.38 92.20 148.35 91.72   Q 148.24 89.70 147.93 87.78   Q 147.74 86.60 146.69 85.16   Q 146.40 84.77 146.59 84.33   Q 147.42 82.41 146.41 80.79   Q 145.92 79.99 145.80 78.93   Q 145.50 76.38 146.01 74.54   A 1.79 1.79 0.0 0 0 145.27 72.59   Q 143.20 71.22 143.67 68.43   A 0.07 0.07 0.0 0 0 143.59 68.35   Q 143.17 68.42 143.15 68.01   Q 143.11 67.47 143.65 67.45   Q 144.16 67.43 144.44 67.03   Q 144.94 66.31 145.79 66.41   Q 146.06 66.44 146.15 66.18   Q 146.30 65.76 146.74 65.67   L 161.49 62.64   Q 186.24 59.84 211.14 61.65   C 216.31 62.03 223.82 63.54 230.53 63.47   A 1.96 1.95 -88.9 0 1 232.51 65.53   Q 230.73 99.02 213.84 127.57   Q 202.48 146.76 187.18 160.68   Z"
     id="path63" />
  <path
     fill="#f9af16"
     d="   M 161.49 62.64   L 146.74 65.67   Q 146.30 65.76 146.15 66.18   Q 146.06 66.44 145.79 66.41   Q 144.94 66.31 144.44 67.03   Q 144.16 67.43 143.65 67.45   Q 143.11 67.47 143.15 68.01   Q 143.17 68.42 143.59 68.35   A 0.07 0.07 0.0 0 1 143.67 68.43   Q 143.20 71.22 145.27 72.59   A 1.79 1.79 0.0 0 1 146.01 74.54   Q 145.50 76.38 145.80 78.93   Q 145.92 79.99 146.41 80.79   Q 147.42 82.41 146.59 84.33   Q 146.40 84.77 146.69 85.16   Q 147.74 86.60 147.93 87.78   Q 148.24 89.70 148.35 91.72   Q 148.38 92.20 148.68 92.58   Q 149.50 93.60 149.24 94.84   Q 149.12 95.39 149.52 95.79   Q 150.89 97.17 151.16 99.11   Q 151.37 100.50 151.74 101.85   Q 152.68 105.18 153.09 108.49   Q 153.13 108.79 153.42 108.94   Q 153.84 109.15 153.89 108.69   Q 153.90 108.50 153.84 108.32   Q 153.58 107.53 154.02 108.23   Q 154.84 109.54 154.29 110.80   Q 154.05 111.34 154.45 111.77   Q 155.51 112.88 155.08 114.06   Q 154.79 114.85 155.34 115.47   Q 156.17 116.43 156.33 117.64   Q 156.55 119.28 157.71 120.70   Q 159.09 122.39 159.33 122.97   Q 159.65 123.76 159.89 124.51   Q 160.17 125.41 160.74 126.09   Q 161.85 127.41 162.86 128.66   A 1.31 1.28 29.3 0 1 163.13 129.58   Q 163.11 129.78 163.15 129.98   Q 163.20 130.25 163.38 130.44   Q 165.99 133.45 167.91 136.98   Q 168.05 137.22 168.30 137.12   Q 168.46 137.05 168.55 137.15   Q 168.65 137.25 168.70 137.39   Q 169.10 138.57 170.26 139.20   Q 170.54 139.36 170.81 139.17   Q 170.95 139.08 171.04 138.94   Q 171.13 138.81 171.24 138.93   Q 172.11 139.91 172.39 141.09   Q 172.62 142.10 173.25 142.98   Q 175.99 146.81 178.72 150.16   Q 179.11 150.64 179.19 151.25   Q 179.27 152.02 179.96 152.47   A 1.60 1.58 9.9 0 1 180.62 153.40   Q 181.18 155.62 182.99 156.46   Q 183.48 156.69 183.75 157.15   Q 185.26 159.71 187.18 160.68   L 175.73 170.44   A 1.65 1.64 -44.6 0 0 175.71 172.94   Q 183.99 180.17 194.93 183.05   Q 197.79 183.80 201.13 184.56   C 206.22 185.73 211.81 185.57 216.96 185.81   A 0.51 0.51 0.0 0 1 217.31 186.67   L 210.75 193.71   Q 200.79 202.50 191.47 207.70   Q 181.21 213.43 168.53 216.33   Q 165.23 217.08 159.87 217.41   Q 155.50 217.67 151.17 218.22   Q 150.11 220.68 146.95 217.18   Q 144.46 214.42 141.77 212.34   Q 140.49 211.35 139.21 209.92   Q 138.10 208.68 136.49 207.58   Q 135.72 207.06 135.22 206.25   Q 134.94 205.80 134.45 205.62   C 133.19 205.15 132.63 203.70 131.59 202.84   Q 128.56 200.32 125.66 198.39   Q 124.80 197.82 123.62 197.72   Q 123.04 197.68 123.03 197.10   Q 123.02 196.72 122.82 196.41   Q 122.56 196.02 122.11 195.86   Q 119.89 195.08 119.12 194.38   Q 116.84 192.28 114.35 188.83   Q 112.88 186.79 110.77 185.45   Q 108.08 183.73 106.02 181.17   Q 105.39 180.39 104.52 179.77   Q 103.97 179.39 104.12 180.04   Q 104.16 180.19 103.87 180.23   Q 103.36 180.29 103.36 179.77   Q 103.36 179.62 103.38 179.48   Q 103.50 178.81 103.17 179.41   C 102.76 180.17 103.20 181.17 102.86 181.94   C 102.18 174.88 101.95 167.39 104.54 160.53   C 107.27 153.29 109.96 147.09 114.95 140.92   C 120.63 133.87 127.73 126.89 135.39 121.55   Q 138.86 119.13 142.24 116.76   Q 146.43 113.81 141.31 113.90   C 134.05 114.02 126.03 113.68 119.26 114.58   Q 91.26 118.27 70.28 134.34   Q 60.59 141.76 51.04 153.41   Q 51.23 153.11 51.07 152.87   Q 50.82 152.47 50.35 152.58   Q 50.13 152.63 49.91 152.59   A 1.38 1.36 -8.9 0 1 48.97 151.92   Q 47.90 150.04 48.52 148.05   C 49.01 146.48 50.01 145.33 50.33 143.65   Q 50.66 141.93 51.93 140.61   Q 53.07 139.43 53.97 137.85   Q 56.23 133.92 58.73 129.74   Q 59.68 128.17 60.31 126.48   Q 60.49 126.01 60.87 125.68   Q 62.72 124.07 63.41 121.71   Q 63.73 120.59 64.28 119.96   Q 64.93 119.21 65.66 118.51   Q 66.81 117.40 67.42 116.24   Q 68.20 114.78 69.01 113.24   Q 69.83 111.66 71.04 110.50   C 72.97 108.63 75.34 106.87 76.84 104.66   Q 77.82 103.19 78.17 101.64   Q 78.77 98.97 80.45 96.88   Q 80.67 96.60 81.02 96.62   Q 81.48 96.65 81.79 96.30   Q 83.27 94.65 85.05 93.23   C 86.76 91.87 87.94 90.23 89.86 89.03   C 90.59 88.57 90.80 87.76 91.63 87.36   Q 93.90 86.27 95.64 84.49   Q 95.76 84.37 95.92 84.37   Q 95.99 84.37 96.05 84.38   Q 96.50 84.51 96.38 84.06   Q 96.35 83.92 96.38 83.77   Q 96.39 83.71 96.44 83.68   Q 98.17 82.43 96.77 81.90   L 111.49 71.95   Q 112.09 72.34 112.47 71.98   Q 113.03 71.47 113.19 72.21   Q 113.25 72.49 113.31 72.76   A 1.96 1.95 72.7 0 0 115.96 74.15   Q 124.31 70.70 131.99 67.92   Q 134.42 67.04 136.56 66.81   C 139.00 66.54 140.84 65.27 143.18 64.94   Q 148.06 64.26 152.56 63.80   A 1.03 1.02 -70.9 0 0 153.19 63.49   Q 153.64 63.01 154.27 63.10   Q 154.75 63.17 155.22 63.12   Q 158.33 62.79 161.49 62.64   Z"
     id="path64" />
  <path
     fill="#f28220"
     d="   M 96.77 81.90   Q 98.17 82.43 96.44 83.68   Q 96.39 83.71 96.38 83.77   Q 96.35 83.92 96.38 84.06   Q 96.50 84.51 96.05 84.38   Q 95.99 84.37 95.92 84.37   Q 95.76 84.37 95.64 84.49   Q 93.90 86.27 91.63 87.36   C 90.80 87.76 90.59 88.57 89.86 89.03   C 87.94 90.23 86.76 91.87 85.05 93.23   Q 83.27 94.65 81.79 96.30   Q 81.48 96.65 81.02 96.62   Q 80.67 96.60 80.45 96.88   Q 78.77 98.97 78.17 101.64   Q 77.82 103.19 76.84 104.66   C 75.34 106.87 72.97 108.63 71.04 110.50   Q 69.83 111.66 69.01 113.24   Q 68.20 114.78 67.42 116.24   Q 66.81 117.40 65.66 118.51   Q 64.93 119.21 64.28 119.96   Q 63.73 120.59 63.41 121.71   Q 62.72 124.07 60.87 125.68   Q 60.49 126.01 60.31 126.48   Q 59.68 128.17 58.73 129.74   Q 56.23 133.92 53.97 137.85   Q 53.07 139.43 51.93 140.61   Q 50.66 141.93 50.33 143.65   C 50.01 145.33 49.01 146.48 48.52 148.05   Q 47.90 150.04 48.97 151.92   A 1.38 1.36 -8.9 0 0 49.91 152.59   Q 50.13 152.63 50.35 152.58   Q 50.82 152.47 51.07 152.87   Q 51.23 153.11 51.04 153.41   Q 44.73 162.43 43.10 165.35   Q 40.26 170.44 35.21 182.41   Q 32.85 183.87 32.41 186.63   A 1.12 1.11 -11.9 0 1 31.91 187.39   L 30.90 188.05   Q 31.81 183.22 32.93 178.55   Q 41.19 144.30 61.69 116.71   Q 76.21 97.16 96.77 81.90   Z"
     id="path65" />
  <path
     fill="#e22b05"
     d="   M 317.26 94.26   Q 355.06 130.46 366.86 181.18   Q 365.32 180.98 363.91 181.68   Q 363.07 182.10 363.45 181.24   Q 363.52 181.09 363.52 180.92   Q 363.53 180.43 363.07 180.58   Q 357.80 182.22 352.26 183.08   Q 347.45 183.83 341.13 185.81   Q 340.93 185.87 340.78 186.03   Q 340.50 186.30 340.12 186.39   Q 332.69 188.07 324.78 189.16   Q 322.22 189.52 319.75 189.05   Q 317.00 188.53 314.99 187.25   Q 314.23 186.77 314.20 184.27   Q 318.37 175.34 318.83 172.02   Q 319.19 169.45 319.93 166.92   Q 320.54 164.83 320.99 162.45   Q 321.45 160.05 321.29 158.75   Q 320.86 155.14 316.56 155.43   Q 319.61 146.77 320.85 137.58   Q 321.26 134.51 321.01 131.68   A 0.78 0.78 0.0 0 0 319.78 131.11   Q 316.81 133.23 313.37 135.04   Q 303.27 140.37 292.06 142.57   C 291.60 141.10 291.90 139.63 293.20 138.75   Q 296.23 136.72 298.10 133.76   C 299.25 131.95 300.92 130.92 301.87 128.91   C 304.07 124.28 306.69 119.74 308.41 115.02   Q 308.96 113.53 310.32 110.96   Q 312.75 106.37 312.46 101.22   L 317.26 94.26   Z"
     id="path66" />
  <path
     fill="#971e09"
     d="   M 312.46 101.22   Q 312.75 106.37 310.32 110.96   Q 308.96 113.53 308.41 115.02   C 306.69 119.74 304.07 124.28 301.87 128.91   C 300.92 130.92 299.25 131.95 298.10 133.76   Q 296.23 136.72 293.20 138.75   C 291.90 139.63 291.60 141.10 292.06 142.57   Q 287.37 143.79 284.00 143.94   Q 279.43 144.14 271.31 143.90   Q 261.70 143.61 252.59 141.21   Q 250.96 140.78 252.47 140.02   C 255.66 138.42 259.09 137.87 262.43 136.49   Q 276.78 130.60 286.78 124.12   Q 294.37 119.20 301.53 112.61   C 304.93 109.48 308.59 104.97 312.46 101.22   Z"
     id="path67" />
  <path
     fill="#f9c255"
     d="   M 102.86 181.94   Q 103.46 190.73 107.08 198.43   C 110.60 205.90 115.17 209.78 123.10 211.83   A 1.05 1.05 0.0 0 1 123.42 213.72   Q 117.39 217.77 112.79 223.73   Q 102.91 236.37 97.60 251.48   Q 95.99 249.87 94.39 250.67   Q 93.62 251.06 93.88 250.24   Q 94.04 249.76 93.88 249.28   A 1.18 1.15 -87.3 0 0 93.25 248.57   Q 91.92 247.95 92.13 246.54   Q 92.20 246.11 91.76 246.11   L 91.12 246.11   Q 90.64 246.11 90.29 245.78   L 87.50 243.15   Q 87.20 242.87 86.80 242.84   Q 86.37 242.81 86.26 242.37   Q 85.95 241.19 84.83 240.91   Q 84.43 240.81 84.22 240.46   Q 83.76 239.71 82.89 239.62   A 0.94 0.94 0.0 0 1 82.18 239.16   Q 81.58 238.14 80.47 237.71   Q 79.49 237.33 78.83 236.57   Q 77.22 234.71 75.46 231.89   Q 73.44 228.65 67.60 222.79   Q 67.41 222.01 66.68 221.96   Q 65.98 221.90 66.26 221.27   Q 66.45 220.84 66.03 220.59   Q 64.56 218.03 62.58 215.70   Q 62.22 215.28 61.67 215.33   Q 60.75 215.41 59.89 215.28   Q 59.02 215.16 59.06 214.29   Q 59.09 213.76 58.72 213.38   Q 55.83 210.38 53.56 206.92   Q 51.36 203.58 48.62 200.35   Q 45.67 196.90 42.72 192.12   C 42.15 191.20 41.03 190.59 40.41 189.63   C 39.49 188.21 38.13 187.49 36.82 186.49   Q 36.03 185.89 35.97 184.88   Q 35.93 184.29 35.34 184.46   Q 35.21 184.50 35.19 184.37   Q 35.12 183.96 35.25 183.53   Q 35.45 182.86 35.21 182.41   Q 40.26 170.44 43.10 165.35   Q 44.73 162.43 51.04 153.41   Q 60.59 141.76 70.28 134.34   Q 91.26 118.27 119.26 114.58   C 126.03 113.68 134.05 114.02 141.31 113.90   Q 146.43 113.81 142.24 116.76   Q 138.86 119.13 135.39 121.55   C 127.73 126.89 120.63 133.87 114.95 140.92   C 109.96 147.09 107.27 153.29 104.54 160.53   C 101.95 167.39 102.18 174.88 102.86 181.94   Z"
     id="path68" />
  <path
     fill="#971e09"
     d="   M 316.56 155.43   Q 320.86 155.14 321.29 158.75   Q 321.45 160.05 320.99 162.45   Q 320.54 164.83 319.93 166.92   Q 319.19 169.45 318.83 172.02   Q 318.37 175.34 314.20 184.27   Q 311.44 189.65 305.56 197.82   Q 300.52 204.80 294.99 208.75   Q 287.17 211.60 280.00 210.41   Q 269.07 208.60 260.60 199.71   Q 259.63 198.84 259.67 198.00   Q 259.69 197.53 260.15 197.45   C 279.51 194.12 297.86 185.75 308.69 169.21   Q 312.53 163.36 316.56 155.43   Z"
     id="path69" />
  <path
     fill="#fd9b00"
     d="   M 151.17 218.22   Q 154.23 227.79 160.63 233.37   Q 164.15 236.43 168.94 237.99   Q 171.91 238.96 175.09 239.50   Q 178.66 240.10 175.46 241.79   Q 174.71 242.19 173.98 242.74   Q 166.19 248.64 159.46 255.80   Q 159.20 255.40 159.12 255.03   A 2.69 2.69 0.0 0 0 157.12 252.97   Q 155.00 252.45 153.15 250.71   C 150.69 248.40 147.51 247.43 144.73 245.65   Q 135.96 240.00 127.67 233.85   Q 126.76 233.17 125.53 233.53   Q 125.08 233.66 124.70 233.38   L 124.42 233.18   A 0.60 0.59 -55.8 0 1 124.27 232.37   Q 124.74 231.64 124.08 231.02   Q 123.94 230.90 123.80 231.01   Q 123.65 231.12 123.47 231.12   Q 122.96 231.11 123.06 230.61   Q 123.22 229.86 123.09 229.17   Q 122.98 228.57 122.41 228.79   L 120.71 229.45   Q 120.13 229.67 120.34 229.09   Q 120.47 228.73 120.21 228.44   C 119.12 227.24 117.80 227.97 116.83 226.28   Q 116.54 225.78 116.04 225.51   L 112.79 223.73   Q 117.39 217.77 123.42 213.72   A 1.05 1.05 0.0 0 0 123.10 211.83   C 115.17 209.78 110.60 205.90 107.08 198.43   Q 103.46 190.73 102.86 181.94   C 103.20 181.17 102.76 180.17 103.17 179.41   Q 103.50 178.81 103.38 179.48   Q 103.36 179.62 103.36 179.77   Q 103.36 180.29 103.87 180.23   Q 104.16 180.19 104.12 180.04   Q 103.97 179.39 104.52 179.77   Q 105.39 180.39 106.02 181.17   Q 108.08 183.73 110.77 185.45   Q 112.88 186.79 114.35 188.83   Q 116.84 192.28 119.12 194.38   Q 119.89 195.08 122.11 195.86   Q 122.56 196.02 122.82 196.41   Q 123.02 196.72 123.03 197.10   Q 123.04 197.68 123.62 197.72   Q 124.80 197.82 125.66 198.39   Q 128.56 200.32 131.59 202.84   C 132.63 203.70 133.19 205.15 134.45 205.62   Q 134.94 205.80 135.22 206.25   Q 135.72 207.06 136.49 207.58   Q 138.10 208.68 139.21 209.92   Q 140.49 211.35 141.77 212.34   Q 144.46 214.42 146.95 217.18   Q 150.11 220.68 151.17 218.22   Z"
     id="path70" />
  <path
     fill="#b32b0a"
     d="   M 366.86 181.18   C 368.23 187.57 369.86 194.15 370.34 200.48   C 371.04 209.79 371.74 218.69 371.22 228.33   Q 370.85 235.28 370.56 242.00   Q 370.51 243.15 370.27 243.99   Q 369.40 243.46 368.99 245.76   Q 368.31 249.49 367.80 253.25   Q 367.34 256.66 365.00 261.82   Q 365.11 260.68 364.85 259.81   Q 364.66 259.14 364.13 259.59   Q 363.76 259.91 363.25 259.96   Q 362.56 260.02 361.80 259.76   Q 360.34 259.26 359.23 259.51   Q 352.35 261.07 345.36 261.84   Q 343.73 262.02 337.17 262.88   Q 333.30 263.39 328.93 263.56   Q 327.74 263.61 326.61 263.47   Q 325.07 263.27 324.33 263.29   Q 314.10 263.53 307.30 262.79   Q 302.31 262.25 296.11 259.89   Q 292.87 258.65 289.84 258.42   Q 286.52 258.17 283.22 258.17   A 1.59 1.58 -5.1 0 1 281.67 256.88   Q 281.56 256.27 281.76 255.70   Q 282.02 254.94 281.56 255.59   Q 281.38 255.83 281.16 256.02   Q 280.98 256.17 280.80 256.02   Q 280.75 255.99 280.74 255.94   Q 280.68 255.74 280.85 255.58   Q 281.13 255.31 280.95 255.15   Q 283.39 253.01 285.64 250.70   C 289.44 246.80 291.89 241.44 294.50 236.70   Q 295.11 235.59 293.93 234.81   A 1.43 1.41 -33.0 0 0 292.90 234.60   Q 288.32 235.42 283.88 235.16   Q 283.48 235.14 279.64 235.26   Q 277.42 235.33 275.37 234.42   Q 278.80 232.34 279.77 231.56   Q 281.69 230.00 287.39 223.90   Q 292.19 218.76 295.31 209.65   Q 295.77 208.31 294.99 208.75   Q 300.52 204.80 305.56 197.82   Q 311.44 189.65 314.20 184.27   Q 314.23 186.77 314.99 187.25   Q 317.00 188.53 319.75 189.05   Q 322.22 189.52 324.78 189.16   Q 332.69 188.07 340.12 186.39   Q 340.50 186.30 340.78 186.03   Q 340.93 185.87 341.13 185.81   Q 347.45 183.83 352.26 183.08   Q 357.80 182.22 363.07 180.58   Q 363.53 180.43 363.52 180.92   Q 363.52 181.09 363.45 181.24   Q 363.07 182.10 363.91 181.68   Q 365.32 180.98 366.86 181.18   Z"
     id="path71" />
  <path
     fill="#f7a160"
     d="   M 35.21 182.41   Q 35.45 182.86 35.25 183.53   Q 35.12 183.96 35.19 184.37   Q 35.21 184.50 35.34 184.46   Q 35.93 184.29 35.97 184.88   Q 36.03 185.89 36.82 186.49   C 38.13 187.49 39.49 188.21 40.41 189.63   C 41.03 190.59 42.15 191.20 42.72 192.12   Q 45.67 196.90 48.62 200.35   Q 51.36 203.58 53.56 206.92   Q 55.83 210.38 58.72 213.38   Q 59.09 213.76 59.06 214.29   Q 59.02 215.16 59.89 215.28   Q 60.75 215.41 61.67 215.33   Q 62.22 215.28 62.58 215.70   Q 64.56 218.03 66.03 220.59   Q 66.45 220.84 66.26 221.27   Q 65.98 221.90 66.68 221.96   Q 67.41 222.01 67.60 222.79   Q 73.44 228.65 75.46 231.89   Q 77.22 234.71 78.83 236.57   Q 79.49 237.33 80.47 237.71   Q 81.58 238.14 82.18 239.16   A 0.94 0.94 0.0 0 0 82.89 239.62   Q 83.76 239.71 84.22 240.46   Q 84.43 240.81 84.83 240.91   Q 85.95 241.19 86.26 242.37   Q 86.37 242.81 86.80 242.84   Q 87.20 242.87 87.50 243.15   L 90.29 245.78   Q 90.64 246.11 91.12 246.11   L 91.76 246.11   Q 92.20 246.11 92.13 246.54   Q 91.92 247.95 93.25 248.57   A 1.18 1.15 -87.3 0 1 93.88 249.28   Q 94.04 249.76 93.88 250.24   Q 93.62 251.06 94.39 250.67   Q 95.99 249.87 97.60 251.48   C 94.55 261.63 92.36 272.03 92.35 282.71   C 91.77 294.58 92.32 306.06 95.74 317.52   L 98.53 326.54   Q 97.80 326.65 97.15 325.23   Q 96.95 324.78 96.53 324.50   Q 94.65 323.26 92.70 322.12   Q 90.56 320.88 88.90 319.69   C 85.06 316.93 81.13 314.52 77.54 311.70   Q 74.32 309.17 70.96 306.49   Q 69.99 305.71 68.90 306.00   Q 68.69 306.05 68.63 305.85   Q 68.38 305.02 67.53 305.15   Q 67.36 305.18 67.33 305.02   Q 67.32 304.97 67.34 304.92   Q 67.52 304.37 66.99 304.16   Q 66.04 303.79 65.57 302.88   Q 65.34 302.42 64.88 302.18   Q 63.29 301.36 61.90 300.02   A 0.26 0.26 0.0 0 0 61.66 299.95   Q 61.42 300.00 61.41 300.22   Q 61.38 301.06 61.18 300.24   Q 61.13 300.02 61.08 299.80   Q 60.99 299.33 60.59 299.06   Q 53.64 294.40 47.16 289.10   A 0.50 0.39 63.3 0 0 46.97 289.01   Q 46.63 288.95 46.69 289.18   Q 46.84 289.77 46.31 289.51   Q 46.06 289.40 45.82 289.31   Q 45.35 289.15 45.11 288.73   Q 44.54 287.71 43.62 287.04   Q 43.54 286.99 43.48 287.06   Q 43.37 287.17 43.39 287.30   Q 43.46 287.91 43.08 287.42   Q 42.11 286.17 42.09 284.76   Q 42.09 284.25 41.84 283.79   Q 40.91 282.11 39.92 280.51   Q 39.88 280.45 38.83 279.20   Q 38.19 278.45 38.09 277.40   Q 38.05 277.02 37.79 276.74   Q 37.50 276.44 37.46 276.02   Q 37.38 275.17 37.33 275.01   Q 36.39 272.20 35.62 269.72   Q 35.49 269.29 35.14 269.00   C 34.23 268.24 34.37 266.74 33.72 265.71   Q 33.41 265.23 33.54 264.67   Q 33.74 263.84 33.15 263.28   Q 32.78 262.93 32.78 262.42   L 32.79 259.31   A 0.98 0.92 -58.3 0 0 32.70 258.86   L 30.22 253.27   Q 29.79 251.05 29.72 248.76   C 29.60 244.98 28.55 241.66 28.39 237.98   Q 27.71 222.43 28.43 206.96   C 28.72 200.77 29.96 194.33 30.90 188.05   L 31.91 187.39   A 1.12 1.11 -11.9 0 0 32.41 186.63   Q 32.85 183.87 35.21 182.41   Z"
     id="path72" />
  <path
     fill="#f27001"
     d="   M 260.60 199.71   Q 269.07 208.60 280.00 210.41   Q 287.17 211.60 294.99 208.75   Q 295.77 208.31 295.31 209.65   Q 292.19 218.76 287.39 223.90   Q 281.69 230.00 279.77 231.56   Q 278.80 232.34 275.37 234.42   Q 266.24 239.90 257.24 241.68   Q 245.41 244.03 237.18 246.20   C 233.62 247.15 230.47 248.95 227.30 250.71   C 219.29 255.13 214.05 263.70 211.53 272.78   Q 210.48 276.57 209.50 280.52   Q 206.14 280.11 203.42 278.26   Q 203.01 277.97 202.51 277.91   Q 201.68 277.81 200.93 277.52   Q 195.41 275.36 189.64 273.29   C 187.13 272.39 184.55 270.89 182.32 270.13   Q 176.12 268.02 170.06 265.38   Q 169.77 265.26 169.47 265.36   Q 169.28 265.43 169.16 265.58   A 0.57 0.57 0.0 0 1 168.17 265.42   Q 168.13 265.30 168.10 265.16   Q 167.96 264.53 167.34 264.35   Q 161.06 262.56 158.63 261.61   Q 157.87 261.32 157.09 259.28   L 159.46 255.80   Q 166.19 248.64 173.98 242.74   Q 174.71 242.19 175.46 241.79   Q 178.66 240.10 175.09 239.50   Q 171.91 238.96 168.94 237.99   Q 164.15 236.43 160.63 233.37   Q 154.23 227.79 151.17 218.22   Q 155.50 217.67 159.87 217.41   Q 165.23 217.08 168.53 216.33   Q 181.21 213.43 191.47 207.70   Q 200.79 202.50 210.75 193.71   Q 211.16 193.68 211.55 193.48   Q 212.27 193.13 212.22 193.94   Q 212.21 194.07 212.34 194.09   Q 212.71 194.14 213.01 193.96   Q 214.13 193.28 214.78 194.34   Q 214.96 194.64 215.29 194.56   Q 217.44 194.05 218.85 194.42   Q 221.56 195.12 223.01 195.12   Q 223.51 195.12 223.96 195.33   Q 226.35 196.42 229.02 196.88   Q 231.20 197.26 233.36 197.91   Q 235.50 198.55 237.66 198.87   Q 241.04 199.37 244.20 200.71   Q 244.67 200.91 244.97 200.50   Q 245.13 200.27 245.41 200.37   Q 246.06 200.62 245.93 199.94   Q 245.89 199.73 245.88 199.53   Q 245.81 198.63 246.51 199.20   Q 247.10 199.69 247.42 200.45   Q 247.63 200.93 248.15 200.97   Q 252.54 201.28 256.62 201.10   Q 257.57 201.06 258.28 200.46   Q 258.67 200.14 259.14 200.31   Q 259.95 200.59 260.60 199.71   Z"
     id="path73" />
  <path
     fill="#f28220"
     d="   M 112.79 223.73   L 116.04 225.51   Q 116.54 225.78 116.83 226.28   C 117.80 227.97 119.12 227.24 120.21 228.44   Q 120.47 228.73 120.34 229.09   Q 120.13 229.67 120.71 229.45   L 122.41 228.79   Q 122.98 228.57 123.09 229.17   Q 123.22 229.86 123.06 230.61   Q 122.96 231.11 123.47 231.12   Q 123.65 231.12 123.80 231.01   Q 123.94 230.90 124.08 231.02   Q 124.74 231.64 124.27 232.37   A 0.60 0.59 -55.8 0 0 124.42 233.18   L 124.70 233.38   Q 125.08 233.66 125.53 233.53   Q 126.76 233.17 127.67 233.85   Q 135.96 240.00 144.73 245.65   C 147.51 247.43 150.69 248.40 153.15 250.71   Q 155.00 252.45 157.12 252.97   A 2.69 2.69 0.0 0 1 159.12 255.03   Q 159.20 255.40 159.46 255.80   L 157.09 259.28   Q 153.69 263.33 151.43 268.21   Q 147.53 276.67 146.32 284.89   Q 145.59 289.21 145.90 294.80   Q 146.34 302.75 147.89 309.43   L 131.72 301.39   Q 131.28 301.18 130.79 301.19   Q 130.34 301.20 130.13 301.00   Q 128.57 299.52 126.54 299.85   Q 126.25 299.89 126.36 299.62   Q 126.39 299.56 126.36 299.50   Q 126.24 299.22 125.95 299.05   Q 124.67 298.33 123.42 298.13   A 0.38 0.38 0.0 0 1 123.10 297.69   Q 123.14 297.44 122.95 297.33   Q 115.59 293.04 107.47 288.02   A 0.35 0.34 28.3 0 0 106.98 288.16   Q 106.87 288.39 106.63 288.43   Q 106.32 288.47 106.49 288.21   Q 106.81 287.71 106.24 287.40   Q 104.02 286.20 101.76 285.07   Q 99.96 284.17 98.21 282.87   Q 96.36 281.50 94.36 280.83   A 0.99 0.98 21.1 0 0 93.15 281.36   Q 92.99 281.70 93.26 281.95   Q 93.50 282.17 93.18 282.22   Q 93.01 282.24 92.95 282.11   Q 92.61 281.34 92.43 282.17   Q 92.37 282.44 92.35 282.71   C 92.36 272.03 94.55 261.63 97.60 251.48   Q 102.91 236.37 112.79 223.73   Z"
     id="path74" />
  <path
     fill="#781a07"
     d="   M 275.37 234.42   Q 277.42 235.33 279.64 235.26   Q 283.48 235.14 283.88 235.16   Q 288.32 235.42 292.90 234.60   A 1.43 1.41 -33.0 0 1 293.93 234.81   Q 295.11 235.59 294.50 236.70   C 291.89 241.44 289.44 246.80 285.64 250.70   Q 283.39 253.01 280.95 255.15   Q 279.00 256.43 277.08 257.81   C 268.18 264.18 257.11 266.66 246.44 268.69   Q 240.35 269.85 233.09 272.48   Q 228.16 274.26 223.51 278.43   Q 216.76 284.48 212.66 291.40   C 212.25 292.10 212.18 293.01 212.08 293.80   Q 212.00 294.31 211.49 294.37   Q 211.02 294.43 210.53 294.30   Q 208.43 287.43 209.50 280.52   Q 210.48 276.57 211.53 272.78   C 214.05 263.70 219.29 255.13 227.30 250.71   C 230.47 248.95 233.62 247.15 237.18 246.20   Q 245.41 244.03 257.24 241.68   Q 266.24 239.90 275.37 234.42   Z"
     id="path75" />
  <path
     fill="#e22b05"
     d="   M 370.27 243.99   Q 369.89 249.39 368.22 256.99   Q 359.18 298.17 333.58 330.54   Q 329.27 335.99 317.90 348.16   Q 316.45 348.11 313.54 351.04   Q 311.22 353.38 297.50 362.88   Q 293.58 365.59 288.74 368.21   Q 284.15 370.68 279.76 373.14   Q 277.73 374.27 274.95 373.30   Q 274.47 373.14 273.98 373.23   C 268.91 374.18 263.68 375.55 258.60 375.76   Q 245.66 376.30 233.73 374.68   C 226.04 373.63 218.47 372.73 211.16 370.64   C 209.89 370.28 208.65 370.38 207.42 370.09   Q 205.63 369.66 200.26 367.43   Q 190.60 363.34 187.88 361.87   Q 178.68 356.93 168.22 347.11   Q 161.98 340.35 160.57 338.18   Q 151.63 324.47 147.89 309.43   Q 146.34 302.75 145.90 294.80   Q 145.59 289.21 146.32 284.89   Q 147.60 283.36 150.68 285.35   Q 152.31 286.40 154.15 287.07   Q 156.81 288.04 159.45 289.37   Q 162.09 290.70 164.78 291.65   Q 168.08 292.83 171.38 294.28   Q 174.48 295.63 178.19 296.87   Q 182.76 298.40 187.48 300.02   Q 187.93 300.17 192.57 301.53   Q 195.01 302.25 197.52 303.40   A 1.66 1.61 -36.2 0 0 198.47 303.53   Q 200.04 303.27 201.20 304.09   Q 201.25 304.12 201.30 304.10   Q 201.42 304.04 201.52 303.97   Q 201.64 303.89 201.79 303.91   Q 205.59 304.46 209.07 306.00   Q 210.71 306.73 212.19 306.81   Q 215.03 306.97 215.48 305.52   Q 222.26 316.48 234.55 322.18   Q 242.47 325.85 251.02 327.27   C 261.53 329.02 272.95 329.67 283.24 327.45   Q 309.30 321.81 330.54 306.29   Q 339.53 299.72 345.43 293.18   Q 353.68 284.02 360.00 273.25   Q 363.37 267.53 365.00 261.82   Q 367.34 256.66 367.80 253.25   Q 368.31 249.49 368.99 245.76   Q 369.40 243.46 370.27 243.99   Z"
     id="path76" />
  <path
     fill="#f46966"
     d="   M 30.22 253.27   L 32.70 258.86   A 0.98 0.92 -58.3 0 1 32.79 259.31   L 32.78 262.42   Q 32.78 262.93 33.15 263.28   Q 33.74 263.84 33.54 264.67   Q 33.41 265.23 33.72 265.71   C 34.37 266.74 34.23 268.24 35.14 269.00   Q 35.49 269.29 35.62 269.72   Q 36.39 272.20 37.33 275.01   Q 37.38 275.17 37.46 276.02   Q 37.50 276.44 37.79 276.74   Q 38.05 277.02 38.09 277.40   Q 38.19 278.45 38.83 279.20   Q 39.88 280.45 39.92 280.51   Q 40.91 282.11 41.84 283.79   Q 42.09 284.25 42.09 284.76   Q 42.11 286.17 43.08 287.42   Q 43.46 287.91 43.39 287.30   Q 43.37 287.17 43.48 287.06   Q 43.54 286.99 43.62 287.04   Q 44.54 287.71 45.11 288.73   Q 45.35 289.15 45.82 289.31   Q 46.06 289.40 46.31 289.51   Q 46.84 289.77 46.69 289.18   Q 46.63 288.95 46.97 289.01   A 0.50 0.39 63.3 0 1 47.16 289.10   Q 53.64 294.40 60.59 299.06   Q 60.99 299.33 61.08 299.80   Q 61.13 300.02 61.18 300.24   Q 61.38 301.06 61.41 300.22   Q 61.42 300.00 61.66 299.95   A 0.26 0.26 0.0 0 1 61.90 300.02   Q 63.29 301.36 64.88 302.18   Q 65.34 302.42 65.57 302.88   Q 66.04 303.79 66.99 304.16   Q 67.52 304.37 67.34 304.92   Q 67.32 304.97 67.33 305.02   Q 67.36 305.18 67.53 305.15   Q 68.38 305.02 68.63 305.85   Q 68.69 306.05 68.90 306.00   Q 69.99 305.71 70.96 306.49   Q 74.32 309.17 77.54 311.70   C 81.13 314.52 85.06 316.93 88.90 319.69   Q 90.56 320.88 92.70 322.12   Q 94.65 323.26 96.53 324.50   Q 96.95 324.78 97.15 325.23   Q 97.80 326.65 98.53 326.54   Q 100.55 332.65 104.34 338.30   Q 107.30 345.46 112.69 352.54   Q 123.12 366.25 135.33 375.61   C 138.74 378.22 142.50 379.99 146.02 382.31   C 148.59 383.99 150.83 385.87 153.75 387.04   Q 160.31 389.66 167.46 391.46   C 169.84 392.06 172.34 392.04 174.79 392.23   C 176.25 392.34 177.38 393.18 178.73 393.66   Q 179.81 394.04 181.84 394.04   Q 184.96 394.04 187.20 395.49   Q 181.63 395.55 180.23 395.08   Q 177.34 394.12 173.16 393.70   Q 167.61 393.14 165.87 392.74   Q 120.95 382.40 89.45 355.82   Q 42.27 315.98 30.22 253.27   Z"
     id="path77" />
  <path
     fill="#971e09"
     d="   M 280.95 255.15   Q 281.13 255.31 280.85 255.58   Q 280.68 255.74 280.74 255.94   Q 280.75 255.99 280.80 256.02   Q 280.98 256.17 281.16 256.02   Q 281.38 255.83 281.56 255.59   Q 282.02 254.94 281.76 255.70   Q 281.56 256.27 281.67 256.88   A 1.59 1.58 -5.1 0 0 283.22 258.17   Q 286.52 258.17 289.84 258.42   Q 292.87 258.65 296.11 259.89   Q 302.31 262.25 307.30 262.79   Q 314.10 263.53 324.33 263.29   Q 325.07 263.27 326.61 263.47   Q 327.74 263.61 328.93 263.56   Q 333.30 263.39 337.17 262.88   Q 343.73 262.02 345.36 261.84   Q 352.35 261.07 359.23 259.51   Q 360.34 259.26 361.80 259.76   Q 362.56 260.02 363.25 259.96   Q 363.76 259.91 364.13 259.59   Q 364.66 259.14 364.85 259.81   Q 365.11 260.68 365.00 261.82   Q 363.37 267.53 360.00 273.25   Q 353.68 284.02 345.43 293.18   Q 339.53 299.72 330.54 306.29   Q 309.30 321.81 283.24 327.45   C 272.95 329.67 261.53 329.02 251.02 327.27   Q 242.47 325.85 234.55 322.18   Q 222.26 316.48 215.48 305.52   Q 211.98 299.97 210.53 294.30   Q 211.02 294.43 211.49 294.37   Q 212.00 294.31 212.08 293.80   C 212.18 293.01 212.25 292.10 212.66 291.40   Q 216.76 284.48 223.51 278.43   Q 228.16 274.26 233.09 272.48   Q 240.35 269.85 246.44 268.69   C 257.11 266.66 268.18 264.18 277.08 257.81   Q 279.00 256.43 280.95 255.15   Z"
     id="path78" />
  <path
     fill="#e94a03"
     d="   M 157.09 259.28   Q 157.87 261.32 158.63 261.61   Q 161.06 262.56 167.34 264.35   Q 167.96 264.53 168.10 265.16   Q 168.13 265.30 168.17 265.42   A 0.57 0.57 0.0 0 0 169.16 265.58   Q 169.28 265.43 169.47 265.36   Q 169.77 265.26 170.06 265.38   Q 176.12 268.02 182.32 270.13   C 184.55 270.89 187.13 272.39 189.64 273.29   Q 195.41 275.36 200.93 277.52   Q 201.68 277.81 202.51 277.91   Q 203.01 277.97 203.42 278.26   Q 206.14 280.11 209.50 280.52   Q 208.43 287.43 210.53 294.30   Q 211.98 299.97 215.48 305.52   Q 215.03 306.97 212.19 306.81   Q 210.71 306.73 209.07 306.00   Q 205.59 304.46 201.79 303.91   Q 201.64 303.89 201.52 303.97   Q 201.42 304.04 201.30 304.10   Q 201.25 304.12 201.20 304.09   Q 200.04 303.27 198.47 303.53   A 1.66 1.61 -36.2 0 1 197.52 303.40   Q 195.01 302.25 192.57 301.53   Q 187.93 300.17 187.48 300.02   Q 182.76 298.40 178.19 296.87   Q 174.48 295.63 171.38 294.28   Q 168.08 292.83 164.78 291.65   Q 162.09 290.70 159.45 289.37   Q 156.81 288.04 154.15 287.07   Q 152.31 286.40 150.68 285.35   Q 147.60 283.36 146.32 284.89   Q 147.53 276.67 151.43 268.21   Q 153.69 263.33 157.09 259.28   Z"
     id="path79" />
  <path
     fill="#ee5f26"
     d="   M 147.89 309.43   Q 151.63 324.47 160.57 338.18   Q 161.98 340.35 168.22 347.11   Q 164.37 346.60 161.13 346.10   Q 158.63 345.72 151.62 342.13   Q 150.06 341.33 148.34 340.78   Q 148.04 340.69 147.90 340.97   Q 147.78 341.20 147.50 341.13   Q 147.25 341.22 147.02 341.06   Q 146.69 340.83 147.09 340.82   Q 147.28 340.81 147.27 340.65   Q 147.25 340.38 147.00 340.29   Q 133.42 335.28 120.50 328.74   Q 120.15 328.56 119.94 328.79   Q 119.80 328.95 119.85 328.75   Q 119.87 328.70 119.84 328.65   Q 119.75 328.48 119.55 328.40   Q 112.42 325.62 106.20 321.48   Q 106.02 321.37 106.00 321.58   Q 105.99 321.76 105.85 321.80   Q 105.48 321.91 105.15 321.68   Q 101.40 319.04 97.42 316.93   Q 97.32 316.88 97.21 316.91   Q 97.04 316.95 96.96 317.06   Q 96.45 317.76 96.63 316.92   Q 96.69 316.68 96.48 316.48   Q 96.08 316.10 95.95 316.64   L 95.74 317.52   C 92.32 306.06 91.77 294.58 92.35 282.71   Q 92.37 282.44 92.43 282.17   Q 92.61 281.34 92.95 282.11   Q 93.01 282.24 93.18 282.22   Q 93.50 282.17 93.26 281.95   Q 92.99 281.70 93.15 281.36   A 0.99 0.98 21.1 0 1 94.36 280.83   Q 96.36 281.50 98.21 282.87   Q 99.96 284.17 101.76 285.07   Q 104.02 286.20 106.24 287.40   Q 106.81 287.71 106.49 288.21   Q 106.32 288.47 106.63 288.43   Q 106.87 288.39 106.98 288.16   A 0.35 0.34 28.3 0 1 107.47 288.02   Q 115.59 293.04 122.95 297.33   Q 123.14 297.44 123.10 297.69   A 0.38 0.38 0.0 0 0 123.42 298.13   Q 124.67 298.33 125.95 299.05   Q 126.24 299.22 126.36 299.50   Q 126.39 299.56 126.36 299.62   Q 126.25 299.89 126.54 299.85   Q 128.57 299.52 130.13 301.00   Q 130.34 301.20 130.79 301.19   Q 131.28 301.18 131.72 301.39   L 147.89 309.43   Z"
     id="path80" />
  <path
     fill="#ec4528"
     d="   M 168.22 347.11   Q 178.68 356.93 187.88 361.87   Q 190.60 363.34 200.26 367.43   Q 200.84 368.72 201.30 368.84   Q 201.99 369.03 201.28 368.96   Q 200.77 368.91 200.24 369.02   Q 199.91 369.09 200.23 369.18   Q 200.37 369.22 200.36 369.43   Q 200.35 369.64 200.15 369.69   L 197.71 370.34   Q 197.18 370.48 196.68 370.26   C 194.56 369.30 192.77 367.77 190.33 367.66   Q 185.00 367.43 179.56 366.39   Q 178.51 366.19 177.63 365.82   Q 176.78 365.46 175.83 365.36   Q 175.43 365.32 175.28 364.96   A 1.06 1.04 84.7 0 0 174.56 364.35   Q 172.25 363.84 169.78 363.25   Q 167.36 362.67 164.85 361.77   Q 151.98 357.13 140.01 352.06   Q 136.10 350.40 130.90 348.45   Q 126.14 346.66 121.91 344.58   Q 116.50 341.92 110.94 339.14   Q 109.48 338.40 107.69 338.38   Q 105.96 338.37 104.34 338.30   Q 100.55 332.65 98.53 326.54   L 95.74 317.52   L 95.95 316.64   Q 96.08 316.10 96.48 316.48   Q 96.69 316.68 96.63 316.92   Q 96.45 317.76 96.96 317.06   Q 97.04 316.95 97.21 316.91   Q 97.32 316.88 97.42 316.93   Q 101.40 319.04 105.15 321.68   Q 105.48 321.91 105.85 321.80   Q 105.99 321.76 106.00 321.58   Q 106.02 321.37 106.20 321.48   Q 112.42 325.62 119.55 328.40   Q 119.75 328.48 119.84 328.65   Q 119.87 328.70 119.85 328.75   Q 119.80 328.95 119.94 328.79   Q 120.15 328.56 120.50 328.74   Q 133.42 335.28 147.00 340.29   Q 147.25 340.38 147.27 340.65   Q 147.28 340.81 147.09 340.82   Q 146.69 340.83 147.02 341.06   Q 147.25 341.22 147.50 341.13   Q 147.78 341.20 147.90 340.97   Q 148.04 340.69 148.34 340.78   Q 150.06 341.33 151.62 342.13   Q 158.63 345.72 161.13 346.10   Q 164.37 346.60 168.22 347.11   Z"
     id="path81" />
  <path
     fill="#eb292a"
     d="   M 104.34 338.30   Q 105.96 338.37 107.69 338.38   Q 109.48 338.40 110.94 339.14   Q 116.50 341.92 121.91 344.58   Q 126.14 346.66 130.90 348.45   Q 136.10 350.40 140.01 352.06   Q 151.98 357.13 164.85 361.77   Q 167.36 362.67 169.78 363.25   Q 172.25 363.84 174.56 364.35   A 1.06 1.04 84.7 0 1 175.28 364.96   Q 175.43 365.32 175.83 365.36   Q 176.78 365.46 177.63 365.82   Q 178.51 366.19 179.56 366.39   Q 185.00 367.43 190.33 367.66   C 192.77 367.77 194.56 369.30 196.68 370.26   Q 197.18 370.48 197.71 370.34   L 200.15 369.69   Q 200.35 369.64 200.36 369.43   Q 200.37 369.22 200.23 369.18   Q 199.91 369.09 200.24 369.02   Q 200.77 368.91 201.28 368.96   Q 201.99 369.03 201.30 368.84   Q 200.84 368.72 200.26 367.43   Q 205.63 369.66 207.42 370.09   C 208.65 370.38 209.89 370.28 211.16 370.64   C 218.47 372.73 226.04 373.63 233.73 374.68   Q 245.66 376.30 258.60 375.76   C 263.68 375.55 268.91 374.18 273.98 373.23   Q 274.47 373.14 274.95 373.30   Q 277.73 374.27 279.76 373.14   Q 284.15 370.68 288.74 368.21   Q 293.58 365.59 297.50 362.88   Q 311.22 353.38 313.54 351.04   Q 316.45 348.11 317.90 348.16   Q 306.24 359.53 290.32 369.57   Q 264.28 385.97 236.64 392.04   Q 232.04 393.06 227.72 393.59   C 223.69 394.09 220.11 395.32 216.03 395.55   Q 201.44 396.35 187.20 395.49   Q 184.96 394.04 181.84 394.04   Q 179.81 394.04 178.73 393.66   C 177.38 393.18 176.25 392.34 174.79 392.23   C 172.34 392.04 169.84 392.06 167.46 391.46   Q 160.31 389.66 153.75 387.04   C 150.83 385.87 148.59 383.99 146.02 382.31   C 142.50 379.99 138.74 378.22 135.33 375.61   Q 123.12 366.25 112.69 352.54   Q 107.30 345.46 104.34 338.30   Z"
     id="path82" />
</svg>
